<?xml version="1.0" encoding="utf-8"?>
<!-- Generator: Adobe Illustrator 26.0.3, SVG Export Plug-In . SVG Version: 6.00 Build 0)  -->
<svg version="1.0" id="katman_1" xmlns="http://www.w3.org/2000/svg" xmlns:xlink="http://www.w3.org/1999/xlink" x="0px" y="0px"
	 viewBox="0 0 600 450" style="enable-background:new 0 0 600 450;" xml:space="preserve">
<g>
	<g>
		<path d="M184.7,152v134.6c0,0.6,0.5,1,1,1h24.8c0.6,0,1-0.5,1-1v-57.4c0-11.1,7.5-19.1,19.4-19.1c13.1,0,16.4,10.7,16.4,21.6v54.8
			c0,0.6,0.5,1,1,1h24.7c0.6,0,1-0.5,1-1v-58.1c0-2-0.1-3.9-0.2-5.9c-0.4-6.2-2-12.3-4.6-18c-5.7-12-16.6-19.7-33-19.7
			c-5,0.1-10,1.3-14.4,3.6c-4.5,2.3-8.4,5.6-11.4,9.6l-0.6,0.7v-47c0-0.6-0.5-1-1-1h-23.2C185.1,151,184.7,151.4,184.7,152
			L184.7,152z M146.7,227.7c0,0-12-2.8-16.4-3.9c-4.4-1.1-12.2-3.6-12.2-9.4c0-6,6.2-7.7,12.6-7.7c6.4,0,13.4,1.5,13.9,8.5
			c0.1,0.5,0.5,0.9,1,0.9l23.3-0.1c0.6,0,1-0.5,1-1.1c-1.4-22.4-21.1-30.4-39.3-30.4c-21.6,0-37.3,14.1-37.3,29.8
			c0,11.4,3.3,22.1,28.7,29.5c4.4,1.3,10.5,3,15.8,4.4c6.4,1.8,9.7,4.4,9.7,8.7c0,4.9-7.2,8.3-14.1,8.3c-10.1,0-17.3-3.7-17.9-10.4
			c-0.1-0.5-0.5-0.9-1-0.9L91.3,254c-0.6,0-1,0.5-1,1c1.1,21.1,21.5,32.5,40.6,32.5c28.4,0,41.3-16,41.3-30.8
			C172.2,249.8,170.6,233.8,146.7,227.7L146.7,227.7z M430.4,199.2v-13.5c0-0.6-0.4-1-1-1h-23.2c-0.5,0-1,0.4-1,1V318
			c0,0.4,0.2,0.8,0.6,0.9c0.1,0.1,0.2,0.1,0.4,0.1H431c0.6,0,1-0.4,1-1v-43.4h0.4c3.9,6,14.7,13.2,28.8,13.2
			c26.5,0,48.5-21.9,48.5-51.4c0-28.4-21.9-51.3-49.8-51.3c-12.4,0-22.8,6.8-29.5,15.1L430.4,199.2L430.4,199.2z M457.6,262.6
			c-14.3,0-25.6-11.8-25.6-26.3c0-14.4,11.3-26.1,25.6-26.1c14.3,0,25.7,11.7,25.7,26.1C483.3,250.7,471.9,262.6,457.6,262.6
			L457.6,262.6z M331.7,179.2c-23.1,0-34.7,7.8-44,14.1l-0.3,0.2c-1,0.7-1.3,2-0.7,3l9.6,16.4c0.5,0.9,1.6,1.4,2.6,1.1
			c0.3-0.1,0.6-0.2,0.9-0.5l0.7-0.6c4.8-4,12-10,30.5-11.5c10.3-0.8,19.2,1.9,25.7,7.9c7.2,6.6,11.5,17.3,11.5,28.6
			c0,20.7-12.3,33.8-32,34.1c-16.3-0.1-27.2-8.5-27.2-21c0-6.6,2.6-11.5,8.5-15.8c0.9-0.7,1.2-1.9,0.7-2.9l-8.2-15.5
			c-0.5-0.9-1.4-1.3-2.4-1.2c-0.3,0-0.6,0.1-0.9,0.3c-9.2,5.4-20.1,16-19.5,35.1c0.7,24.4,21.1,43,47.6,43.8h3
			c31.5-1,54.1-24.3,54.1-55.7C392,210.1,370.9,179.2,331.7,179.2L331.7,179.2z M331.7,179.2"/>
	</g>
</g>
</svg>
